<svg width="84" height="36" viewBox="0 0 84 36" fill="none" xmlns="http://www.w3.org/2000/svg">
<g clip-path="url(#clip0_4179_8848)">
<g clip-path="url(#clip1_4179_8848)">
<path d="M36.0942 0.74658C35.6299 1.05674 35.2914 1.44828 34.986 1.91062C33.861 1.92973 32.8026 2.25172 32.0036 3.08154C31.242 3.8724 30.9823 4.83232 31.0179 5.90738L31.0212 5.98868C31.1629 6.95357 31.5519 7.7441 32.3385 8.33936C32.5247 8.48022 32.9388 8.68516 33.3605 8.89384C33.9044 9.16292 34.4608 9.43823 34.5572 9.59042C34.8891 10.0647 35.7757 10.3417 36.3252 10.4426C37.1853 10.6004 37.9531 10.5297 38.7809 10.2843C39.9612 12.1142 40.4592 14.0359 40.7329 16.1818L40.6353 16.3634C40.3891 16.1469 40.1862 15.8137 39.9848 15.483C39.8419 15.2483 39.6997 15.0148 39.5435 14.8255C37.9737 12.9206 35.5882 11.5732 33.0619 11.7154C32.5626 11.7434 31.4119 11.8597 31.0219 12.1934C30.963 12.6559 31.4691 13.3851 31.7568 13.7534C33.4407 15.9091 36.1789 16.4393 38.7268 16.9326C38.9608 16.9779 39.1932 17.0229 39.423 17.0688C39.4399 17.0722 39.4578 17.0756 39.4766 17.0791C39.6718 17.1162 39.9501 17.1691 39.9984 17.3579L39.972 17.427C37.3706 16.9892 34.6543 17.3049 32.4615 18.8769C30.5871 20.2206 29.511 22.3416 29.1477 24.5856C28.7164 27.2491 29.1665 30.2298 30.7698 32.4473C32.0661 34.2402 33.9806 35.3777 36.1601 35.7223C38.5688 36.103 41.1861 35.6554 43.1769 34.1978C45.066 32.8146 46.1355 30.7002 46.482 28.4185C46.8988 25.6724 46.5159 22.753 44.8344 20.4799C44.1083 19.4982 43.2514 18.8303 42.2076 18.215C42.1849 18.2017 42.1621 18.189 42.1395 18.1765C42.0113 18.1053 41.8913 18.0387 41.8561 17.8779C44.1967 17.0769 46.5118 16.1124 48.3752 14.4358C49.2792 13.6226 50.8548 11.7273 50.9194 10.5281C50.8134 10.3583 50.7804 10.3275 50.5852 10.2701C50.1808 10.1508 49.6713 10.1347 49.2462 10.1256C46.9857 10.0767 45.0776 11.11 43.6732 12.8401C43.5899 12.9426 43.4657 13.1356 43.3274 13.3508C43.0578 13.7701 42.7342 14.2734 42.5533 14.3545C42.5372 14.3617 42.5208 14.368 42.5044 14.3743C42.4956 14.3777 42.4867 14.3811 42.478 14.3846C42.6291 13.7618 42.8292 13.1441 43.0291 12.5268C43.1749 12.0765 43.3207 11.6263 43.4474 11.1745L43.5136 11.1223C45.109 9.85525 46.2512 7.94798 46.4729 5.90812C46.6383 4.38967 46.2793 3.06144 45.3232 1.86621C45.1652 1.94834 45.0089 2.03312 44.8584 2.12749C43.5045 2.97848 42.775 4.62299 42.4491 6.13565C42.1216 7.65477 42.0463 9.84847 42.9189 11.1976C42.3697 12.9239 41.837 14.6553 41.3201 16.3913C41.1084 14.1565 40.4459 11.9137 39.2759 9.99561C39.4658 9.82291 39.6419 9.63566 39.8024 9.43558C40.4723 8.61023 41.2713 7.02544 41.1605 5.94526C41.0384 5.78836 40.9027 5.05517 40.7872 4.43106C40.7221 4.07905 40.6634 3.76174 40.6171 3.60211C40.3905 2.81745 40.0845 2.08374 39.7354 1.34671C39.3962 0.825814 38.8924 0.408296 38.2731 0.270834C37.5049 0.10037 36.738 0.316657 36.0942 0.74658ZM36.9017 17.9927C37.9868 17.8856 38.9883 17.9933 39.9323 18.5873C41.4558 19.5464 42.1936 21.3413 42.5765 23.0272C43.2332 25.9231 43.2299 30.6291 41.5658 33.2145C40.8884 34.2668 40.015 34.7795 38.8178 35.0392C37.701 35.1593 36.6369 35.0483 35.6795 34.4165C34.1068 33.3787 33.4163 31.4068 33.0524 29.6403C32.4428 26.6817 32.3597 22.4266 34.1134 19.8055C34.8152 18.7564 35.6888 18.2422 36.9017 17.9927Z" fill="#F2F2F2"/>
<path d="M34.986 1.91062C35.2913 1.44828 35.6298 1.05674 36.0942 0.746578C36.7379 0.316656 37.5049 0.100371 38.2731 0.270834C38.8924 0.408297 39.3962 0.825812 39.7354 1.34671C38.6743 1.6539 38.3124 2.06174 37.6972 2.97435C37.5354 3.41883 37.3968 3.8839 37.3576 4.35774C38.1041 5.01569 38.5838 5.7561 38.65 6.77516C38.658 6.89691 38.667 6.91957 38.6005 7.01824L38.3292 6.93801C38.0875 7.1146 38.0269 7.41549 37.9818 7.69753C37.9014 8.20123 37.8896 8.74438 37.8995 9.25412C37.2767 9.07183 36.7283 9.00855 36.08 9.03874C35.5466 9.17075 35.0432 9.32467 34.5571 9.59041C34.386 9.3202 32.7646 8.66184 32.3384 8.33936C31.5518 7.7441 31.1628 6.95356 31.0212 5.98868L31.0178 5.90738C30.9823 4.83232 31.242 3.8724 32.0035 3.08154C32.8026 2.25172 33.8609 1.92973 34.986 1.91062Z" fill="#EEEE60"/>
<path d="M34.986 1.91062C35.2913 1.44828 35.6298 1.05674 36.0942 0.746578C36.7379 0.316656 37.5049 0.100371 38.2731 0.270834C38.8924 0.408297 39.3962 0.825812 39.7354 1.34671C38.6743 1.6539 38.3124 2.06174 37.6972 2.97435C37.5354 3.41883 37.3968 3.8839 37.3576 4.35774L36.6123 4.05709C36.315 4.06503 35.7293 4.00532 35.4746 4.13385L35.1462 4.29356C35.0195 4.40869 34.8716 4.58221 34.7261 4.66599L34.4509 5.14116L34.2603 5.1529C33.3745 5.13702 32.5382 5.23363 31.7275 5.61616C31.4983 5.72434 31.2578 5.91689 31.0212 5.98868L31.0178 5.90738C30.9823 4.83232 31.242 3.8724 32.0035 3.08154C32.8026 2.25172 33.8609 1.92973 34.986 1.91062Z" fill="#AC321C"/>
<path d="M36.6123 4.05709C36.7479 3.69367 36.8623 3.24679 37.1424 2.96955C37.3952 2.86732 37.4461 2.90082 37.6971 2.97435C37.5353 3.41883 37.3967 3.8839 37.3575 4.35774L36.6123 4.05709Z" fill="#F2F2F2"/>
<path d="M35.146 4.29355C34.8782 4.10944 34.5703 3.92152 34.3536 3.67612C34.2131 3.51707 34.1395 3.34397 34.1493 3.1319L34.2902 3.06242C34.8831 3.19244 35.1366 3.67745 35.4744 4.13384L35.146 4.29355Z" fill="#F2F2F2"/>
<path d="M34.26 5.15291C34.1485 5.1391 34.0227 5.12917 33.9145 5.09724C33.7336 5.0439 33.7045 4.96896 33.6357 4.81355C33.7129 4.70537 33.7314 4.67551 33.8538 4.62167C34.1499 4.49157 34.4357 4.55748 34.7258 4.666L34.4506 5.14116L34.26 5.15291Z" fill="#F2F2F2"/>
<path d="M35.7377 2.39273C35.8378 2.43599 35.936 2.4876 35.9992 2.5804C36.253 2.953 36.2105 3.69681 36.1644 4.12855L35.8117 4.02384C35.7634 3.9709 35.726 3.92881 35.6962 3.86272C35.4884 3.40187 35.5742 2.85135 35.7377 2.39273Z" fill="#F2F2F2"/>
<path d="M34.2606 5.1529L34.4512 5.14116C34.2189 6.01961 34.0937 6.90807 34.58 7.73343C34.927 8.32256 35.49 8.71915 36.0803 9.03874C35.5468 9.17075 35.0435 9.32467 34.5574 9.59041C34.3863 9.3202 32.7649 8.66184 32.3387 8.33935C31.5521 7.7441 31.1631 6.95356 31.0215 5.98868C31.258 5.91689 31.4986 5.72434 31.7277 5.61616C32.5385 5.23363 33.3748 5.13702 34.2606 5.1529Z" fill="#78270E"/>
<path d="M42.4783 14.3846C42.5032 14.3746 42.5288 14.3656 42.5536 14.3545C42.8274 14.2318 43.4278 13.1423 43.6735 12.8401C45.0779 11.11 46.986 10.0767 49.2464 10.1256C49.6716 10.1347 50.181 10.1508 50.5855 10.2701C50.7807 10.3275 50.8138 10.3583 50.9196 10.5281C50.8551 11.7273 49.2795 13.6226 48.3755 14.4358C46.5121 16.1124 44.197 17.0769 41.8564 17.8779C43.0722 16.3382 44.4948 14.8274 46.0166 13.5896C46.546 13.1591 48.7816 11.7908 48.9437 11.5093C48.8718 11.4625 48.8618 11.4326 48.7725 11.4456C46.7511 11.7396 42.8572 15.8925 41.6479 17.4627C41.801 16.3936 42.064 15.3839 42.4783 14.3846Z" fill="#1A5E07"/>
<path d="M39.9719 17.427L39.9984 17.3579C39.9455 17.151 39.6163 17.1073 39.4229 17.0688C36.6907 16.5229 33.5954 16.1071 31.7568 13.7534C31.469 13.3851 30.9629 12.6559 31.0218 12.1934C31.4119 11.8597 32.5625 11.7434 33.0618 11.7154C35.5882 11.5732 37.9737 12.9206 39.5435 14.8255C39.9198 15.2815 40.2143 15.9933 40.6353 16.3634L40.7329 16.1817C40.7759 16.4372 40.7932 16.6383 40.756 16.8978C40.4525 16.8005 39.9728 16.1772 39.6874 15.9513C38.0772 14.6749 35.2529 12.9389 33.1218 13.0001L33.0667 13.0753C33.5975 13.4887 34.4945 13.6529 35.1277 13.8725C37.0377 14.5351 39.1673 15.7914 40.3847 17.4438L40.3193 17.5173C40.2134 17.4932 40.0646 17.4794 39.9719 17.427Z" fill="#1A5E07"/>
<path d="M45.3231 1.8662C46.2792 3.06142 46.6381 4.38965 46.4727 5.90811C46.2511 7.94796 45.1088 9.85523 43.5134 11.1223L43.4472 11.1745C43.8161 9.35443 44.0899 7.43583 44.6308 5.66329C44.7491 5.2777 45.0121 4.58145 44.8169 4.21439L44.6804 4.26898C43.8475 5.5872 43.4257 9.46931 42.9187 11.1976C42.0461 9.84845 42.1214 7.65476 42.4489 6.13564C42.7748 4.62297 43.5043 2.97847 44.8582 2.12747C45.0088 2.0331 45.1651 1.94833 45.3231 1.8662Z" fill="#1A5E07"/>
<path d="M37.697 2.97434C38.3123 2.06173 38.6741 1.65389 39.7352 1.34671C40.0843 2.08373 40.3903 2.81744 40.6169 3.60211C40.7451 4.04476 40.9692 5.69986 41.1603 5.94525C40.4821 6.0823 40.0115 6.44713 39.6343 7.0213C39.4244 7.34114 39.2601 7.70563 39.1082 8.05665C38.9402 7.74583 38.6684 7.36239 38.6004 7.01824C38.6669 6.91957 38.6579 6.8969 38.6499 6.77516C38.5837 5.7561 38.104 5.01569 37.3574 4.35773C37.3966 3.88389 37.5352 3.41882 37.697 2.97434Z" fill="#78270E"/>
<path d="M70.0526 17.2833C69.405 17.2641 68.7599 17.2997 68.1148 17.3536C66.5474 17.6697 64.6649 18.2041 63.727 19.614C63.2589 20.3177 63.0504 21.1868 63.2167 22.0219C63.3391 22.6354 63.6675 23.1961 64.1985 23.5408C64.6897 23.8595 65.3953 24.005 65.9701 23.8762C66.4473 23.7692 66.8534 23.4596 67.1107 23.0473C67.4026 22.579 67.4878 21.985 67.3621 21.4498C67.2844 21.1196 67.0587 20.8597 66.8393 20.607C66.475 20.1874 66.1281 19.7879 66.506 19.1198C66.8137 18.5767 67.5432 18.253 68.1222 18.1194C69.0171 17.9128 70.0865 17.976 70.8772 18.4777C71.6506 18.9686 72.0823 19.775 72.2733 20.6525C72.5091 21.741 72.5645 23.329 71.9301 24.2795C71.3546 25.142 69.8905 25.4807 68.2456 25.8612C65.8883 26.4065 63.1597 27.0377 62.1439 29.4198C61.7532 30.3354 61.8702 31.2754 61.9583 31.9829C62.0072 32.3763 62.0472 32.6978 61.986 32.9034C61.9967 32.9175 62.0075 32.9315 62.0182 32.9457C62.1454 33.117 62.2483 33.3018 62.3513 33.4868C62.4265 33.6217 62.5017 33.7568 62.5865 33.8869C63.2928 34.9727 64.2456 35.4446 65.5052 35.6386C67.4059 35.9315 69.5133 35.5143 71.0724 34.3593C71.4446 34.0836 72.1328 33.4638 72.2063 32.9855C72.2127 32.9939 72.219 33.0022 72.2251 33.0106L72.2328 33.0217C72.4607 33.3633 72.542 33.705 72.6184 34.0264C72.7791 34.7023 72.9184 35.2882 74.3551 35.5937C75.4328 35.8229 77.1019 35.7068 78.0581 35.0711C78.2541 34.9412 78.4559 34.7389 78.4939 34.4984C78.4989 34.4668 78.5002 34.4433 78.5001 34.4182C78.5001 34.3983 78.4993 34.3774 78.4989 34.3505C78.4827 34.3353 78.4691 34.3219 78.4571 34.3101C78.386 34.2405 78.3728 34.2274 78.2433 34.2308C78.0537 34.2357 77.8595 34.2704 77.6653 34.3051C77.1717 34.3933 76.6791 34.4813 76.2666 34.0784C75.6546 33.4808 75.6664 32.0974 75.6738 31.21C75.6744 31.1414 75.6749 31.0758 75.6752 31.0137C75.6901 29.0948 75.6942 27.1758 75.6884 25.2568C75.681 20.9183 75.542 17.4465 70.0526 17.2833ZM72.0152 25.2935L72.2518 25.2862L72.323 25.3853C72.3911 25.9372 72.3716 26.4921 72.3521 27.047C72.3431 27.301 72.3342 27.555 72.3337 27.8088C72.3329 28.1434 72.3443 28.4842 72.3557 28.8271C72.383 29.6473 72.4108 30.4805 72.275 31.2717C72.1989 31.7187 72.0351 32.1466 71.7944 32.5311C71.2651 33.3748 70.3908 33.8995 69.429 34.1048C68.29 34.3479 67.396 34.0962 66.4382 33.482C66.3799 33.3785 66.3236 33.2797 66.2694 33.1846C65.7093 32.202 65.3748 31.6154 65.4879 30.3038C65.7009 27.8267 68.1625 26.9064 70.1833 26.1509L70.3387 26.0927L70.4471 26.052C70.523 26.0234 70.607 25.9934 70.6957 25.9617L70.697 25.9612C71.1212 25.8097 71.6554 25.6188 71.9458 25.3586C71.9555 25.3501 71.9648 25.3414 71.9741 25.3327C71.9878 25.3197 72.0014 25.3065 72.0152 25.2935Z" fill="#F2F2F2"/>
<path d="M70.3688 26.0812C70.3439 26.0905 70.319 26.0999 70.2939 26.1093L70.3382 26.0927L70.3688 26.0812Z" fill="#EEEE60"/>
<path d="M13.4355 7.50125C13.8363 7.45733 14.2714 7.47214 14.6734 7.51175C16.2225 7.65195 17.6511 8.40642 18.6404 9.60669C19.3009 10.4222 19.6856 11.411 19.5651 12.4683C19.4947 13.087 19.2635 13.6851 18.7614 14.0792C18.2249 14.5004 17.4562 14.7093 16.7799 14.6258C16.2104 14.5555 15.7133 14.2543 15.366 13.7995C15.0568 13.3946 14.9222 12.7918 14.9978 12.2903C15.1638 11.1888 16.3175 11.0874 17.0498 10.5325C17.2465 10.3834 17.3291 10.2322 17.3646 9.99063C17.3198 9.70843 17.2049 9.52432 17.015 9.31978C16.3105 8.56076 15.238 8.21065 14.2225 8.18525C13.3478 8.16325 12.4818 8.39649 11.8469 9.02392C10.3306 10.5219 10.7465 15.2493 10.751 17.3C11.7662 17.3096 17.5785 17.13 18.1023 17.5156C18.1537 17.6863 18.1312 17.7852 18.0873 17.9558C17.6895 18.2279 11.763 18.0838 10.7452 18.0985L10.7536 23.9641C11.2766 23.9652 11.8021 23.9719 12.3246 23.95C16.0043 23.7963 14.9027 21.1401 15.7871 20.2604C15.8797 20.1682 15.9279 20.1935 16.0558 20.1935C16.3119 20.5331 16.1963 26.8836 16.1961 27.8368C16.199 28.0605 16.1829 28.2794 16.1645 28.5021L16.0065 28.631C15.8018 28.6335 15.7515 28.6653 15.5915 28.5286C15.4664 27.4982 15.171 26.1913 14.402 25.4523C13.4485 24.5359 11.9694 24.7281 10.7535 24.7436C10.7464 26.494 10.3594 32.8718 11.4812 34.0878C12.0951 34.7534 13.2202 34.6655 13.6526 35.2072L13.6334 35.3257C13.393 35.4588 13.0979 35.4663 12.8286 35.4774C12.0553 35.5094 5.10907 35.4925 4.72745 35.3765C4.65103 35.3534 4.68047 35.349 4.6014 35.3591C4.58643 35.361 4.57196 35.3655 4.55732 35.3688L4.51861 35.2774C4.62315 34.8859 6.21348 34.5763 6.6683 34.1016C7.66519 33.0609 7.30425 26.5511 7.29432 24.7568C6.59394 24.7456 5.19261 24.9903 4.66666 24.5583C4.5689 24.3674 4.54177 24.3319 4.56385 24.1218C4.95242 23.7743 6.73472 23.9404 7.28755 23.9387C7.29648 21.9826 7.29515 20.0265 7.28357 18.0703C6.43274 18.0862 5.29227 18.2361 4.52043 17.8288L4.5 17.5851C5.03058 17.1422 6.59849 17.3049 7.2887 17.3104C7.25785 14.77 7.29457 11.7446 8.97952 9.66393C10.0948 8.28666 11.7271 7.67949 13.4355 7.50125Z" fill="#F2F2F2"/>
<path d="M25.7539 6.21439L25.8494 6.23316C25.9792 6.38518 25.9795 6.46673 25.9895 6.66044C26.0982 8.7653 25.9813 10.9381 25.9805 13.0505L25.9769 26.4147C25.9767 28.019 25.7464 32.3347 26.2565 33.5939C26.8226 34.9918 28.1452 34.5504 28.5716 35.2072L28.5049 35.3821C28.1188 35.5324 21.4814 35.4513 20.4106 35.4842C20.3258 35.4841 20.3425 35.4933 20.2794 35.4683C20.1169 35.4038 20.1212 35.3397 20.0532 35.1898C20.2138 34.6384 21.3938 34.8609 21.875 34.3255C22.2921 33.8615 22.4546 33.2445 22.5309 32.6411C22.689 31.3904 22.6405 30.1052 22.64 28.8466L22.6352 23.5465L22.6315 15.9571C22.6335 14.2722 22.676 12.5773 22.595 10.8943C22.5059 9.04337 22.5687 8.69814 20.739 8.13192C20.5542 8.07468 20.2915 8.01298 20.1545 7.86848C20.0682 7.7775 20.0939 7.74657 20.0918 7.62921L20.1688 7.63897C20.3135 7.47099 20.9779 7.43484 21.2102 7.40532C22.7993 7.20301 24.3141 6.94678 25.7539 6.21439Z" fill="#F2F2F2"/>
<path d="M52.7399 17.1825L52.9889 17.2139C53.0087 17.2449 53.041 17.2898 53.0551 17.3266C53.2403 17.8098 53.1386 21.0456 52.9517 21.486C53.2188 21.2536 53.3338 20.9255 53.4926 20.6169C54.0542 19.526 54.7481 18.5688 55.8688 17.9962C57.0334 17.4011 58.5445 17.0911 59.8074 17.5162C60.5088 17.7521 61.0754 18.2362 61.3971 18.905C61.7321 19.6027 61.7982 20.4239 61.5286 21.1545C61.3086 21.7489 60.8669 22.2791 60.2847 22.545C59.733 22.7968 59.121 22.7751 58.5627 22.5522C57.9986 22.3268 57.5205 21.9239 57.2906 21.3521C56.8473 20.2525 57.4436 19.8549 57.7869 18.9508C57.8539 18.7758 57.8414 18.7218 57.7645 18.5578C57.5288 18.4443 57.2815 18.4928 57.0375 18.5514C53.931 19.2963 53.2023 22.9678 53.1394 25.7076C53.1237 26.3825 53.1485 28.7481 53.1485 28.7481C53.1485 28.7481 53.1229 31.0219 53.1485 31.6751C53.2106 33.2621 53.3197 34.3382 55.0169 34.8474C55.265 34.9218 55.581 34.9681 55.7704 35.1543C55.8209 35.2036 55.796 35.2934 55.7952 35.361C55.7762 35.3755 55.7572 35.3909 55.7381 35.4045C55.6331 35.4768 47.7286 35.5042 47.2902 35.3944L47.2373 35.2123C47.4201 34.5224 48.7484 34.8678 49.2604 34.2161C49.5151 33.8917 49.6135 33.4689 49.6714 33.0691C49.9833 30.9234 49.8327 28.6048 49.8277 26.4325C49.8236 24.633 49.9386 22.716 49.6938 20.938C49.3538 18.4639 48.4531 19.6255 47.43 18.8462C47.3407 18.6509 47.3548 18.6301 47.4036 18.4178C49.1462 18.0879 51.0808 18.0731 52.6829 17.2137L52.7399 17.1825Z" fill="#F2F2F2"/>
</g>
</g>
<defs>
<clipPath id="clip0_4179_8848">
<rect width="84" height="36" fill="white"/>
</clipPath>
<clipPath id="clip1_4179_8848">
<rect width="74" height="35.6389" fill="white" transform="translate(4.5 0.212479)"/>
</clipPath>
</defs>
</svg>
