<svg width="84" height="36" viewBox="0 0 84 36" fill="none" xmlns="http://www.w3.org/2000/svg">
<g clip-path="url(#clip0_8238_18966)">
<path d="M36.0942 0.746564C35.63 1.05672 35.2914 1.44826 34.986 1.91061C33.861 1.92971 32.8027 2.2517 32.0036 3.08152C31.2421 3.87239 30.9824 4.83231 31.0179 5.90736L31.0213 5.98866C31.1629 6.95355 31.5519 7.74408 32.3385 8.33934C32.5247 8.4802 32.9388 8.68514 33.3606 8.89382C33.9044 9.1629 34.4608 9.43821 34.5572 9.5904C34.8891 10.0647 35.7757 10.3416 36.3252 10.4425C37.1853 10.6004 37.9531 10.5296 38.7809 10.2843C39.9612 12.1142 40.4592 14.0359 40.7329 16.1817L40.6353 16.3634C40.3891 16.1469 40.1862 15.8137 39.9849 15.483C39.8419 15.2483 39.6998 15.0148 39.5435 14.8255C37.9737 12.9206 35.5882 11.5732 33.0619 11.7154C32.5626 11.7434 31.4119 11.8597 31.0219 12.1933C30.963 12.6559 31.4691 13.3851 31.7568 13.7534C33.4408 15.9091 36.179 16.4393 38.7268 16.9326C38.9608 16.9779 39.1932 17.0229 39.423 17.0688C39.4399 17.0722 39.4579 17.0756 39.4766 17.0791C39.6718 17.1162 39.9501 17.1691 39.9984 17.3579L39.972 17.427C37.3706 16.9892 34.6544 17.3049 32.4615 18.8769C30.5871 20.2206 29.511 22.3416 29.1477 24.5856C28.7164 27.249 29.1665 30.2298 30.7698 32.4473C32.0661 34.2402 33.9806 35.3777 36.1601 35.7223C38.5688 36.103 41.1862 35.6553 43.1769 34.1978C45.066 32.8145 46.1355 30.7002 46.482 28.4185C46.8989 25.6724 46.5159 22.753 44.8345 20.4799C44.1083 19.4982 43.2514 18.8303 42.2076 18.215C42.185 18.2016 42.1621 18.189 42.1396 18.1764C42.0113 18.1053 41.8913 18.0386 41.8561 17.8779C44.1967 17.0769 46.5118 16.1123 48.3753 14.4358C49.2792 13.6225 50.8548 11.7273 50.9194 10.5281C50.8135 10.3583 50.7804 10.3275 50.5852 10.2701C50.1808 10.1508 49.6713 10.1347 49.2462 10.1256C46.9858 10.0767 45.0776 11.11 43.6732 12.84C43.5899 12.9425 43.4658 13.1356 43.3274 13.3508C43.0579 13.7701 42.7342 14.2734 42.5533 14.3544C42.5372 14.3617 42.5208 14.368 42.5044 14.3743C42.4956 14.3777 42.4868 14.381 42.4781 14.3845C42.6291 13.7618 42.8292 13.1441 43.0291 12.5268C43.1749 12.0764 43.3208 11.6263 43.4474 11.1745L43.5136 11.1223C45.109 9.85523 46.2513 7.94796 46.4729 5.90811C46.6384 4.38965 46.2794 3.06142 45.3233 1.86619C45.1653 1.94833 45.009 2.0331 44.8584 2.12747C43.5045 2.97846 42.775 4.62297 42.4491 6.13564C42.1216 7.65476 42.0463 9.84845 42.9189 11.1976C42.3698 12.9239 41.8371 14.6553 41.3201 16.3913C41.1084 14.1564 40.4459 11.9137 39.2759 9.99559C39.4658 9.82289 39.642 9.63564 39.8024 9.43557C40.4724 8.61021 41.2713 7.02542 41.1605 5.94524C41.0384 5.78834 40.9027 5.05515 40.7872 4.43104C40.7221 4.07904 40.6634 3.76173 40.6171 3.6021C40.3905 2.81743 40.0845 2.08372 39.7355 1.3467C39.3963 0.825798 38.8925 0.40828 38.2731 0.270817C37.5049 0.100354 36.738 0.316641 36.0942 0.746564ZM36.9017 17.9926C37.9868 17.8855 38.9883 17.9933 39.9323 18.5873C41.4558 19.5463 42.1936 21.3413 42.5765 23.0272C43.2332 25.9231 43.2299 30.6291 41.5658 33.2144C40.8884 34.2668 40.015 34.7795 38.8178 35.0392C37.701 35.1593 36.6369 35.0483 35.6796 34.4165C34.1069 33.3787 33.4163 31.4067 33.0524 29.6403C32.4429 26.6817 32.3597 22.4266 34.1134 19.8055C34.8153 18.7564 35.6888 18.2422 36.9017 17.9926Z" fill="#353C3A"/>
<path d="M34.986 1.91061C35.2913 1.44826 35.6298 1.05672 36.0942 0.746563C36.7379 0.316641 37.5049 0.100355 38.2731 0.270819C38.8924 0.408281 39.3962 0.825796 39.7354 1.3467C38.6743 1.65388 38.3124 2.06172 37.6972 2.97433C37.5354 3.41881 37.3968 3.88388 37.3576 4.35772C38.1041 5.01567 38.5838 5.75609 38.65 6.77514C38.658 6.89689 38.667 6.91955 38.6005 7.01823L38.3292 6.938C38.0875 7.11458 38.0269 7.41548 37.9818 7.69752C37.9014 8.20122 37.8896 8.74437 37.8995 9.2541C37.2767 9.07181 36.7283 9.00854 36.08 9.03873C35.5466 9.17073 35.0432 9.32465 34.5571 9.5904C34.386 9.32019 32.7646 8.66182 32.3384 8.33934C31.5518 7.74408 31.1628 6.95355 31.0212 5.98866L31.0178 5.90736C30.9823 4.83231 31.242 3.87239 32.0035 3.08152C32.8026 2.2517 33.8609 1.92971 34.986 1.91061Z" fill="#EAE9E8"/>
<path d="M34.986 1.91061C35.2913 1.44826 35.6298 1.05672 36.0942 0.746563C36.7379 0.316641 37.5049 0.100355 38.2731 0.270819C38.8924 0.408281 39.3962 0.825796 39.7354 1.3467C38.6743 1.65388 38.3124 2.06172 37.6972 2.97433C37.5354 3.41881 37.3968 3.88388 37.3576 4.35772L36.6123 4.05708C36.315 4.06502 35.7293 4.0053 35.4746 4.13383L35.1462 4.29354C35.0195 4.40867 34.8716 4.5822 34.7261 4.66598L34.4509 5.14115L34.2603 5.15289C33.3745 5.13701 32.5382 5.23361 31.7275 5.61614C31.4983 5.72433 31.2578 5.91687 31.0212 5.98866L31.0178 5.90736C30.9823 4.83231 31.242 3.87239 32.0035 3.08152C32.8026 2.2517 33.8609 1.92971 34.986 1.91061Z" fill="#DB8778"/>
<path d="M36.6123 4.05706C36.7479 3.69364 36.8623 3.24676 37.1424 2.96952C37.3952 2.86729 37.4461 2.90079 37.6971 2.97432C37.5353 3.4188 37.3967 3.88387 37.3575 4.35771L36.6123 4.05706Z" fill="#353C3A"/>
<path d="M35.146 4.29353C34.8782 4.10942 34.5703 3.92151 34.3536 3.67611C34.2131 3.51706 34.1395 3.34395 34.1493 3.13188L34.2902 3.06241C34.8831 3.19243 35.1366 3.67743 35.4744 4.13382L35.146 4.29353Z" fill="#353C3A"/>
<path d="M34.26 5.15289C34.1485 5.13908 34.0227 5.12915 33.9145 5.09723C33.7336 5.04388 33.7045 4.96895 33.6357 4.81354C33.7129 4.70535 33.7314 4.6755 33.8538 4.62165C34.1499 4.49155 34.4357 4.55747 34.7258 4.66598L34.4506 5.14115L34.26 5.15289Z" fill="#353C3A"/>
<path d="M35.7377 2.3927C35.8378 2.43596 35.936 2.48757 35.9992 2.58037C36.253 2.95297 36.2105 3.69677 36.1644 4.12852L35.8117 4.02381C35.7634 3.97087 35.726 3.92877 35.6962 3.86269C35.4884 3.40183 35.5742 2.85132 35.7377 2.3927Z" fill="#353C3A"/>
<path d="M34.2606 5.15289L34.4512 5.14114C34.2189 6.0196 34.0937 6.90806 34.58 7.73341C34.927 8.32255 35.49 8.71914 36.0803 9.03873C35.5468 9.17073 35.0435 9.32465 34.5574 9.5904C34.3863 9.32018 32.7649 8.66182 32.3387 8.33934C31.5521 7.74408 31.1631 6.95355 31.0215 5.98866C31.258 5.91687 31.4986 5.72432 31.7277 5.61614C32.5385 5.23361 33.3748 5.13701 34.2606 5.15289Z" fill="#EBB19F"/>
<path d="M42.4783 14.3845C42.5032 14.3745 42.5288 14.3656 42.5536 14.3544C42.8274 14.2318 43.4278 13.1422 43.6735 12.84C45.0779 11.11 46.986 10.0767 49.2464 10.1256C49.6716 10.1347 50.181 10.1507 50.5855 10.2701C50.7807 10.3275 50.8138 10.3583 50.9196 10.5281C50.8551 11.7273 49.2795 13.6225 48.3755 14.4358C46.5121 16.1123 44.197 17.0769 41.8564 17.8778C43.0722 16.3382 44.4948 14.8274 46.0166 13.5896C46.546 13.159 48.7816 11.7908 48.9437 11.5093C48.8718 11.4624 48.8618 11.4326 48.7725 11.4455C46.7511 11.7396 42.8572 15.8925 41.6479 17.4626C41.801 16.3935 42.064 15.3839 42.4783 14.3845Z" fill="#97A898"/>
<path d="M39.9719 17.427L39.9984 17.3579C39.9455 17.151 39.6163 17.1073 39.4229 17.0688C36.6907 16.5229 33.5954 16.107 31.7568 13.7534C31.469 13.3851 30.9629 12.6559 31.0218 12.1933C31.4119 11.8597 32.5625 11.7434 33.0618 11.7154C35.5882 11.5732 37.9737 12.9206 39.5435 14.8255C39.9198 15.2815 40.2143 15.9932 40.6353 16.3634L40.7329 16.1817C40.7759 16.4372 40.7932 16.6383 40.756 16.8977C40.4525 16.8005 39.9728 16.1772 39.6874 15.9513C38.0772 14.6749 35.2529 12.9389 33.1218 13.0001L33.0667 13.0753C33.5975 13.4886 34.4945 13.6529 35.1277 13.8725C37.0377 14.5351 39.1673 15.7914 40.3847 17.4438L40.3193 17.5172C40.2134 17.4932 40.0646 17.4794 39.9719 17.427Z" fill="#97A898"/>
<path d="M45.3231 1.86618C46.2792 3.06141 46.6381 4.38963 46.4727 5.90809C46.2511 7.94795 45.1088 9.85522 43.5134 11.1222L43.4472 11.1745C43.8161 9.35441 44.0899 7.43581 44.6308 5.66327C44.7491 5.27768 45.0121 4.58144 44.8169 4.21437L44.6804 4.26896C43.8475 5.58718 43.4257 9.4693 42.9187 11.1976C42.0461 9.84843 42.1214 7.65474 42.4489 6.13562C42.7748 4.62296 43.5043 2.97845 44.8582 2.12746C45.0088 2.03309 45.1651 1.94831 45.3231 1.86618Z" fill="#97A898"/>
<path d="M37.697 2.97434C38.3123 2.06173 38.6741 1.65389 39.7352 1.34671C40.0843 2.08373 40.3903 2.81744 40.6169 3.60211C40.7451 4.04476 40.9692 5.69986 41.1603 5.94525C40.4821 6.0823 40.0115 6.44713 39.6343 7.0213C39.4244 7.34114 39.2601 7.70563 39.1082 8.05665C38.9402 7.74583 38.6684 7.36239 38.6004 7.01824C38.6669 6.91957 38.6579 6.8969 38.6499 6.77516C38.5837 5.7561 38.104 5.01569 37.3574 4.35773C37.3966 3.88389 37.5352 3.41882 37.697 2.97434Z" fill="#EBB19F"/>
<path d="M70.0526 17.2833C69.405 17.2641 68.7599 17.2997 68.1148 17.3536C66.5474 17.6697 64.6649 18.2041 63.727 19.614C63.2589 20.3177 63.0504 21.1868 63.2167 22.0219C63.3391 22.6354 63.6675 23.1961 64.1985 23.5408C64.6897 23.8595 65.3953 24.005 65.9701 23.8762C66.4473 23.7692 66.8534 23.4596 67.1107 23.0472C67.4026 22.579 67.4878 21.985 67.3621 21.4498C67.2844 21.1196 67.0587 20.8596 66.8393 20.607C66.475 20.1874 66.1281 19.7879 66.506 19.1198C66.8137 18.5767 67.5432 18.253 68.1222 18.1194C69.0171 17.9128 70.0865 17.9759 70.8772 18.4777C71.6506 18.9685 72.0823 19.775 72.2733 20.6525C72.5091 21.741 72.5645 23.329 71.9301 24.2795C71.3546 25.142 69.8905 25.4807 68.2456 25.8611C65.8883 26.4065 63.1597 27.0377 62.1439 29.4198C61.7532 30.3354 61.8702 31.2753 61.9583 31.9829C62.0072 32.3763 62.0472 32.6978 61.986 32.9034C61.9967 32.9175 62.0075 32.9315 62.0182 32.9457C62.1454 33.117 62.2483 33.3018 62.3513 33.4868C62.4265 33.6217 62.5017 33.7568 62.5865 33.8869C63.2928 34.9727 64.2456 35.4446 65.5052 35.6386C67.4059 35.9315 69.5133 35.5142 71.0724 34.3593C71.4446 34.0835 72.1328 33.4638 72.2063 32.9855C72.2127 32.9939 72.219 33.0022 72.2251 33.0106L72.2328 33.0217C72.4607 33.3633 72.542 33.705 72.6184 34.0264C72.7791 34.7023 72.9184 35.2882 74.3551 35.5937C75.4328 35.8229 77.1019 35.7068 78.0581 35.0711C78.2541 34.9412 78.4559 34.7388 78.4939 34.4984C78.4989 34.4668 78.5002 34.4433 78.5001 34.4182C78.5001 34.3983 78.4993 34.3773 78.4989 34.3504C78.4827 34.3353 78.4691 34.3219 78.4571 34.3101C78.386 34.2405 78.3728 34.2274 78.2433 34.2308C78.0537 34.2356 77.8595 34.2704 77.6653 34.305C77.1717 34.3933 76.6791 34.4813 76.2666 34.0784C75.6546 33.4808 75.6664 32.0974 75.6738 31.2099C75.6744 31.1414 75.6749 31.0758 75.6752 31.0137C75.6901 29.0948 75.6942 27.1758 75.6884 25.2567C75.681 20.9183 75.542 17.4465 70.0526 17.2833ZM72.0152 25.2935L72.2518 25.2862L72.323 25.3853C72.3911 25.9372 72.3716 26.4921 72.3521 27.0469C72.3431 27.301 72.3342 27.555 72.3337 27.8087C72.3329 28.1434 72.3443 28.4842 72.3557 28.8271C72.383 29.6472 72.4108 30.4805 72.275 31.2717C72.1989 31.7187 72.0351 32.1466 71.7944 32.5311C71.2651 33.3748 70.3908 33.8995 69.429 34.1048C68.29 34.3479 67.396 34.0962 66.4382 33.482C66.3799 33.3785 66.3236 33.2797 66.2694 33.1846C65.7093 32.202 65.3748 31.6154 65.4879 30.3037C65.7009 27.8267 68.1625 26.9063 70.1833 26.1509L70.3387 26.0927L70.4471 26.052C70.523 26.0234 70.607 25.9934 70.6957 25.9617L70.697 25.9612C71.1212 25.8097 71.6554 25.6188 71.9458 25.3586C71.9555 25.3501 71.9648 25.3414 71.9741 25.3327C71.9878 25.3196 72.0014 25.3064 72.0152 25.2935Z" fill="#353C3A"/>
<path d="M70.3688 26.0812C70.3439 26.0905 70.319 26.0999 70.2939 26.1092L70.3382 26.0927L70.3688 26.0812Z" fill="#EAE9E8"/>
<path d="M13.4355 7.50124C13.8363 7.45732 14.2714 7.47212 14.6734 7.51174C16.2225 7.65193 17.6511 8.4064 18.6404 9.60668C19.3009 10.4222 19.6856 11.411 19.5651 12.4682C19.4947 13.087 19.2635 13.6851 18.7614 14.0792C18.2249 14.5004 17.4562 14.7093 16.7799 14.6258C16.2104 14.5555 15.7133 14.2543 15.366 13.7995C15.0568 13.3946 14.9222 12.7918 14.9978 12.2903C15.1638 11.1887 16.3175 11.0874 17.0498 10.5324C17.2465 10.3834 17.3291 10.2322 17.3646 9.99061C17.3198 9.70841 17.2049 9.5243 17.015 9.31976C16.3105 8.56074 15.238 8.21063 14.2225 8.18524C13.3478 8.16324 12.4818 8.39648 11.8469 9.02391C10.3306 10.5219 10.7465 15.2493 10.751 17.3C11.7662 17.3095 17.5785 17.13 18.1023 17.5156C18.1537 17.6863 18.1312 17.7852 18.0873 17.9558C17.6895 18.2279 11.763 18.0838 10.7452 18.0985L10.7536 23.9641C11.2766 23.9651 11.8021 23.9718 12.3246 23.95C16.0043 23.7963 14.9027 21.1401 15.7871 20.2604C15.8797 20.1682 15.9279 20.1934 16.0558 20.1934C16.3119 20.5331 16.1963 26.8836 16.1961 27.8368C16.199 28.0605 16.1829 28.2794 16.1645 28.5021L16.0065 28.631C15.8018 28.6335 15.7515 28.6653 15.5915 28.5285C15.4664 27.4982 15.171 26.1913 14.402 25.4523C13.4485 24.5359 11.9694 24.7281 10.7535 24.7436C10.7464 26.494 10.3594 32.8718 11.4812 34.0878C12.0951 34.7534 13.2202 34.6655 13.6526 35.2072L13.6334 35.3257C13.393 35.4588 13.0979 35.4663 12.8286 35.4774C12.0553 35.5094 5.10907 35.4925 4.72745 35.3765C4.65103 35.3534 4.68047 35.349 4.6014 35.3591C4.58643 35.361 4.57196 35.3655 4.55732 35.3687L4.51861 35.2774C4.62315 34.8859 6.21348 34.5763 6.6683 34.1016C7.66519 33.0609 7.30425 26.5511 7.29432 24.7568C6.59394 24.7456 5.19261 24.9902 4.66666 24.5583C4.5689 24.3674 4.54177 24.3319 4.56385 24.1218C4.95242 23.7743 6.73472 23.9404 7.28755 23.9387C7.29648 21.9826 7.29515 20.0265 7.28357 18.0703C6.43274 18.0862 5.29227 18.236 4.52043 17.8288L4.5 17.585C5.03058 17.1421 6.59849 17.3049 7.2887 17.3104C7.25785 14.77 7.29457 11.7446 8.97952 9.66391C10.0948 8.28664 11.7271 7.67947 13.4355 7.50124Z" fill="#353C3A"/>
<path d="M25.7539 6.21436L25.8494 6.23313C25.9792 6.38515 25.9795 6.4667 25.9895 6.66041C26.0982 8.76527 25.9813 10.938 25.9805 13.0505L25.9769 26.4146C25.9767 28.019 25.7464 32.3346 26.2565 33.5939C26.8226 34.9917 28.1452 34.5504 28.5716 35.2071L28.5049 35.3821C28.1188 35.5323 21.4814 35.4513 20.4106 35.4842C20.3258 35.484 20.3425 35.4933 20.2794 35.4682C20.1169 35.4037 20.1212 35.3396 20.0532 35.1898C20.2138 34.6383 21.3938 34.8608 21.875 34.3254C22.2921 33.8614 22.4546 33.2445 22.5309 32.6411C22.689 31.3903 22.6405 30.1052 22.64 28.8465L22.6352 23.5465L22.6315 15.9571C22.6335 14.2722 22.676 12.5773 22.595 10.8943C22.5059 9.04334 22.5687 8.69811 20.739 8.13189C20.5542 8.07465 20.2915 8.01295 20.1545 7.86845C20.0682 7.77747 20.0939 7.74654 20.0918 7.62918L20.1688 7.63894C20.3135 7.47095 20.9779 7.43481 21.2102 7.40529C22.7993 7.20298 24.3141 6.94674 25.7539 6.21436Z" fill="#353C3A"/>
<path d="M52.7399 17.1825L52.9889 17.2138C53.0087 17.2449 53.041 17.2898 53.0551 17.3266C53.2403 17.8098 53.1386 21.0456 52.9517 21.4859C53.2188 21.2536 53.3338 20.9255 53.4926 20.6169C54.0542 19.526 54.7481 18.5688 55.8688 17.9962C57.0334 17.4011 58.5445 17.0911 59.8074 17.5161C60.5088 17.7521 61.0754 18.2362 61.3971 18.905C61.7321 19.6026 61.7982 20.4239 61.5286 21.1544C61.3086 21.7489 60.8669 22.2791 60.2847 22.5449C59.733 22.7968 59.121 22.7751 58.5627 22.5522C57.9986 22.3268 57.5205 21.9239 57.2906 21.3521C56.8473 20.2525 57.4436 19.8548 57.7869 18.9507C57.8539 18.7758 57.8414 18.7218 57.7645 18.5578C57.5288 18.4442 57.2815 18.4928 57.0375 18.5513C53.931 19.2963 53.2023 22.9677 53.1394 25.7076C53.1237 26.3825 53.1485 28.7481 53.1485 28.7481C53.1485 28.7481 53.1229 31.0219 53.1485 31.675C53.2106 33.2621 53.3197 34.3382 55.0169 34.8473C55.265 34.9218 55.581 34.9681 55.7704 35.1543C55.8209 35.2036 55.796 35.2934 55.7952 35.361C55.7762 35.3754 55.7572 35.3908 55.7381 35.4045C55.6331 35.4768 47.7286 35.5042 47.2902 35.3944L47.2373 35.2123C47.4201 34.5224 48.7484 34.8678 49.2604 34.2161C49.5151 33.8917 49.6135 33.4689 49.6714 33.0691C49.9833 30.9234 49.8327 28.6048 49.8277 26.4325C49.8236 24.6329 49.9386 22.716 49.6938 20.938C49.3538 18.4639 48.4531 19.6255 47.43 18.8462C47.3407 18.6509 47.3548 18.6301 47.4036 18.4178C49.1462 18.0878 51.0808 18.073 52.6829 17.2137L52.7399 17.1825Z" fill="#353C3A"/>
</g>
<defs>
<clipPath id="clip0_8238_18966">
<rect width="74" height="35.6389" fill="white" transform="translate(4.5 0.212463)"/>
</clipPath>
</defs>
</svg>
